G04 #@! TF.FileFunction,Legend,Top*
%FSLAX46Y46*%
G04 Gerber Fmt 4.6, Leading zero omitted, Abs format (unit mm)*
G04 Created by KiCad (PCBNEW 4.0.0-stable) date 2016 March 08, Tuesday 03:17:28*
%MOMM*%
G01*
G04 APERTURE LIST*
%ADD10C,0.100000*%
%ADD11C,0.254000*%
%ADD12C,0.300000*%
%ADD13C,0.150000*%
%ADD14R,1.650000X1.900000*%
%ADD15R,1.924000X2.432000*%
%ADD16R,2.432000X1.924000*%
%ADD17R,1.150000X1.600000*%
%ADD18R,2.432000X2.432000*%
%ADD19O,2.432000X2.432000*%
%ADD20R,1.200100X2.200860*%
%ADD21R,1.300000X1.600000*%
%ADD22R,1.543000X0.908000*%
G04 APERTURE END LIST*
D10*
D11*
X130410857Y-109603419D02*
X129927048Y-109603419D01*
X129878667Y-110087229D01*
X129927048Y-110038848D01*
X130023810Y-109990467D01*
X130265714Y-109990467D01*
X130362476Y-110038848D01*
X130410857Y-110087229D01*
X130459238Y-110183990D01*
X130459238Y-110425895D01*
X130410857Y-110522657D01*
X130362476Y-110571038D01*
X130265714Y-110619419D01*
X130023810Y-110619419D01*
X129927048Y-110571038D01*
X129878667Y-110522657D01*
X130846286Y-109700181D02*
X130894667Y-109651800D01*
X130991429Y-109603419D01*
X131233333Y-109603419D01*
X131330095Y-109651800D01*
X131378476Y-109700181D01*
X131426857Y-109796943D01*
X131426857Y-109893705D01*
X131378476Y-110038848D01*
X130797905Y-110619419D01*
X131426857Y-110619419D01*
X132394476Y-110619419D02*
X131813905Y-110619419D01*
X132104191Y-110619419D02*
X132104191Y-109603419D01*
X132007429Y-109748562D01*
X131910667Y-109845324D01*
X131813905Y-109893705D01*
X132781524Y-109700181D02*
X132829905Y-109651800D01*
X132926667Y-109603419D01*
X133168571Y-109603419D01*
X133265333Y-109651800D01*
X133313714Y-109700181D01*
X133362095Y-109796943D01*
X133362095Y-109893705D01*
X133313714Y-110038848D01*
X132733143Y-110619419D01*
X133362095Y-110619419D01*
X134474857Y-109942086D02*
X134716762Y-110619419D01*
X134958666Y-109942086D01*
X135877904Y-110619419D02*
X135297333Y-110619419D01*
X135587619Y-110619419D02*
X135587619Y-109603419D01*
X135490857Y-109748562D01*
X135394095Y-109845324D01*
X135297333Y-109893705D01*
X136313333Y-110522657D02*
X136361714Y-110571038D01*
X136313333Y-110619419D01*
X136264952Y-110571038D01*
X136313333Y-110522657D01*
X136313333Y-110619419D01*
X136990667Y-109603419D02*
X137087428Y-109603419D01*
X137184190Y-109651800D01*
X137232571Y-109700181D01*
X137280952Y-109796943D01*
X137329333Y-109990467D01*
X137329333Y-110232371D01*
X137280952Y-110425895D01*
X137232571Y-110522657D01*
X137184190Y-110571038D01*
X137087428Y-110619419D01*
X136990667Y-110619419D01*
X136893905Y-110571038D01*
X136845524Y-110522657D01*
X136797143Y-110425895D01*
X136748762Y-110232371D01*
X136748762Y-109990467D01*
X136797143Y-109796943D01*
X136845524Y-109700181D01*
X136893905Y-109651800D01*
X136990667Y-109603419D01*
X130676953Y-111521724D02*
X130580191Y-111473343D01*
X130386667Y-111473343D01*
X130289905Y-111521724D01*
X130193143Y-111618486D01*
X130144762Y-111715248D01*
X130144762Y-111908771D01*
X130193143Y-112005533D01*
X130289905Y-112102295D01*
X130386667Y-112150676D01*
X130580191Y-112150676D01*
X130676953Y-112102295D01*
X130483429Y-111134676D02*
X130241524Y-111183057D01*
X129999620Y-111328200D01*
X129854477Y-111570105D01*
X129806096Y-111812010D01*
X129854477Y-112053914D01*
X129999620Y-112295819D01*
X130241524Y-112440962D01*
X130483429Y-112489343D01*
X130725334Y-112440962D01*
X130967239Y-112295819D01*
X131112382Y-112053914D01*
X131160762Y-111812010D01*
X131112382Y-111570105D01*
X130967239Y-111328200D01*
X130725334Y-111183057D01*
X130483429Y-111134676D01*
X132902476Y-112295819D02*
X132321905Y-112295819D01*
X132612191Y-112295819D02*
X132612191Y-111279819D01*
X132515429Y-111424962D01*
X132418667Y-111521724D01*
X132321905Y-111570105D01*
X133773333Y-111279819D02*
X133579810Y-111279819D01*
X133483048Y-111328200D01*
X133434667Y-111376581D01*
X133337905Y-111521724D01*
X133289524Y-111715248D01*
X133289524Y-112102295D01*
X133337905Y-112199057D01*
X133386286Y-112247438D01*
X133483048Y-112295819D01*
X133676571Y-112295819D01*
X133773333Y-112247438D01*
X133821714Y-112199057D01*
X133870095Y-112102295D01*
X133870095Y-111860390D01*
X133821714Y-111763629D01*
X133773333Y-111715248D01*
X133676571Y-111666867D01*
X133483048Y-111666867D01*
X133386286Y-111715248D01*
X133337905Y-111763629D01*
X133289524Y-111860390D01*
X135079619Y-111618486D02*
X135079619Y-112634486D01*
X135563428Y-112150676D02*
X135611809Y-112247438D01*
X135708571Y-112295819D01*
X135079619Y-112150676D02*
X135128000Y-112247438D01*
X135224762Y-112295819D01*
X135418285Y-112295819D01*
X135515047Y-112247438D01*
X135563428Y-112150676D01*
X135563428Y-111618486D01*
X135998857Y-111279819D02*
X136579428Y-111279819D01*
X136289143Y-112295819D02*
X136289143Y-111279819D01*
X136918095Y-112295819D02*
X136918095Y-111279819D01*
X137353523Y-112295819D02*
X137353523Y-111763629D01*
X137305142Y-111666867D01*
X137208380Y-111618486D01*
X137063238Y-111618486D01*
X136966476Y-111666867D01*
X136918095Y-111715248D01*
D12*
X149693429Y-111676571D02*
X148836286Y-111676571D01*
X149264858Y-111676571D02*
X149264858Y-110176571D01*
X149122001Y-110390857D01*
X148979143Y-110533714D01*
X148836286Y-110605143D01*
X150264857Y-110319429D02*
X150336286Y-110248000D01*
X150479143Y-110176571D01*
X150836286Y-110176571D01*
X150979143Y-110248000D01*
X151050572Y-110319429D01*
X151122000Y-110462286D01*
X151122000Y-110605143D01*
X151050572Y-110819429D01*
X150193429Y-111676571D01*
X151122000Y-111676571D01*
X151550571Y-110176571D02*
X152050571Y-111676571D01*
X152550571Y-110176571D01*
X149907715Y-102643714D02*
X149836286Y-102715143D01*
X149622000Y-102786571D01*
X149479143Y-102786571D01*
X149264858Y-102715143D01*
X149122000Y-102572286D01*
X149050572Y-102429429D01*
X148979143Y-102143714D01*
X148979143Y-101929429D01*
X149050572Y-101643714D01*
X149122000Y-101500857D01*
X149264858Y-101358000D01*
X149479143Y-101286571D01*
X149622000Y-101286571D01*
X149836286Y-101358000D01*
X149907715Y-101429429D01*
X150336286Y-101286571D02*
X151193429Y-101286571D01*
X150764858Y-102786571D02*
X150764858Y-101286571D01*
X152407715Y-102786571D02*
X151693429Y-102786571D01*
X151693429Y-101286571D01*
X129413143Y-98818000D02*
X129270286Y-98746571D01*
X129056000Y-98746571D01*
X128841715Y-98818000D01*
X128698857Y-98960857D01*
X128627429Y-99103714D01*
X128556000Y-99389429D01*
X128556000Y-99603714D01*
X128627429Y-99889429D01*
X128698857Y-100032286D01*
X128841715Y-100175143D01*
X129056000Y-100246571D01*
X129198857Y-100246571D01*
X129413143Y-100175143D01*
X129484572Y-100103714D01*
X129484572Y-99603714D01*
X129198857Y-99603714D01*
X130127429Y-100246571D02*
X130127429Y-98746571D01*
X130984572Y-100246571D01*
X130984572Y-98746571D01*
X131698858Y-100246571D02*
X131698858Y-98746571D01*
X132056001Y-98746571D01*
X132270286Y-98818000D01*
X132413144Y-98960857D01*
X132484572Y-99103714D01*
X132556001Y-99389429D01*
X132556001Y-99603714D01*
X132484572Y-99889429D01*
X132413144Y-100032286D01*
X132270286Y-100175143D01*
X132056001Y-100246571D01*
X131698858Y-100246571D01*
X130016287Y-107382571D02*
X129302001Y-107382571D01*
X129230572Y-108096857D01*
X129302001Y-108025429D01*
X129444858Y-107954000D01*
X129802001Y-107954000D01*
X129944858Y-108025429D01*
X130016287Y-108096857D01*
X130087715Y-108239714D01*
X130087715Y-108596857D01*
X130016287Y-108739714D01*
X129944858Y-108811143D01*
X129802001Y-108882571D01*
X129444858Y-108882571D01*
X129302001Y-108811143D01*
X129230572Y-108739714D01*
X130516286Y-107382571D02*
X131016286Y-108882571D01*
X131516286Y-107382571D01*
D13*
X137248000Y-102100000D02*
X137248000Y-101100000D01*
X135548000Y-101100000D02*
X135548000Y-102100000D01*
X137248000Y-107180000D02*
X137248000Y-106180000D01*
X135548000Y-106180000D02*
X135548000Y-107180000D01*
X149352000Y-100711000D02*
X149606000Y-100711000D01*
X149606000Y-100711000D02*
X149606000Y-98425000D01*
X149606000Y-98425000D02*
X149352000Y-98425000D01*
X149352000Y-100711000D02*
X149352000Y-98425000D01*
X149352000Y-98425000D02*
X147701000Y-98425000D01*
X145923000Y-100711000D02*
X144272000Y-100711000D01*
X144272000Y-100711000D02*
X144272000Y-98425000D01*
X144272000Y-98425000D02*
X145923000Y-98425000D01*
X147701000Y-100711000D02*
X149352000Y-100711000D01*
X132461000Y-106426000D02*
X132461000Y-106680000D01*
X132461000Y-106680000D02*
X134747000Y-106680000D01*
X134747000Y-106680000D02*
X134747000Y-106426000D01*
X132461000Y-106426000D02*
X134747000Y-106426000D01*
X134747000Y-106426000D02*
X134747000Y-104775000D01*
X132461000Y-102997000D02*
X132461000Y-101346000D01*
X132461000Y-101346000D02*
X134747000Y-101346000D01*
X134747000Y-101346000D02*
X134747000Y-102997000D01*
X132461000Y-104775000D02*
X132461000Y-106426000D01*
X146466000Y-108554000D02*
X146466000Y-107854000D01*
X147666000Y-107854000D02*
X147666000Y-108554000D01*
X143256000Y-100711000D02*
X143510000Y-100711000D01*
X143510000Y-100711000D02*
X143510000Y-98425000D01*
X143510000Y-98425000D02*
X143256000Y-98425000D01*
X143256000Y-100711000D02*
X143256000Y-98425000D01*
X143256000Y-98425000D02*
X141605000Y-98425000D01*
X139827000Y-100711000D02*
X138176000Y-100711000D01*
X138176000Y-100711000D02*
X138176000Y-98425000D01*
X138176000Y-98425000D02*
X139827000Y-98425000D01*
X141605000Y-100711000D02*
X143256000Y-100711000D01*
X131572000Y-103886000D02*
X131572000Y-106426000D01*
X131852000Y-101066000D02*
X131852000Y-102616000D01*
X131572000Y-103886000D02*
X129032000Y-103886000D01*
X128752000Y-102616000D02*
X128752000Y-101066000D01*
X128752000Y-101066000D02*
X131852000Y-101066000D01*
X129032000Y-103886000D02*
X129032000Y-106426000D01*
X129032000Y-106426000D02*
X131572000Y-106426000D01*
X151892000Y-106426000D02*
X151892000Y-108966000D01*
X152172000Y-103606000D02*
X152172000Y-105156000D01*
X151892000Y-106426000D02*
X149352000Y-106426000D01*
X149072000Y-105156000D02*
X149072000Y-103606000D01*
X149072000Y-103606000D02*
X152172000Y-103606000D01*
X149352000Y-106426000D02*
X149352000Y-108966000D01*
X149352000Y-108966000D02*
X151892000Y-108966000D01*
X140232180Y-110032800D02*
X140232180Y-109331760D01*
X140232180Y-109331760D02*
X140481100Y-109331760D01*
X143031160Y-109331760D02*
X143231820Y-109331760D01*
X143231820Y-109331760D02*
X143231820Y-110032800D01*
X146391000Y-104302000D02*
X146391000Y-103302000D01*
X147741000Y-103302000D02*
X147741000Y-104302000D01*
X138009000Y-110990000D02*
X138009000Y-109990000D01*
X139359000Y-109990000D02*
X139359000Y-110990000D01*
X145455000Y-109990000D02*
X145455000Y-110990000D01*
X144105000Y-110990000D02*
X144105000Y-109990000D01*
X144018000Y-101600000D02*
X144018000Y-106680000D01*
X144018000Y-106680000D02*
X139446000Y-106680000D01*
X139446000Y-106680000D02*
X139446000Y-101600000D01*
X139446000Y-101600000D02*
X144018000Y-101600000D01*
X142494000Y-101600000D02*
X142494000Y-102108000D01*
X142494000Y-102108000D02*
X141224000Y-102108000D01*
X141224000Y-102108000D02*
X141224000Y-101600000D01*
X140660381Y-109556666D02*
X140184190Y-109890000D01*
X140660381Y-110128095D02*
X139660381Y-110128095D01*
X139660381Y-109747142D01*
X139708000Y-109651904D01*
X139755619Y-109604285D01*
X139850857Y-109556666D01*
X139993714Y-109556666D01*
X140088952Y-109604285D01*
X140136571Y-109651904D01*
X140184190Y-109747142D01*
X140184190Y-110128095D01*
X139755619Y-109175714D02*
X139708000Y-109128095D01*
X139660381Y-109032857D01*
X139660381Y-108794761D01*
X139708000Y-108699523D01*
X139755619Y-108651904D01*
X139850857Y-108604285D01*
X139946095Y-108604285D01*
X140088952Y-108651904D01*
X140660381Y-109223333D01*
X140660381Y-108604285D01*
X146756381Y-111672666D02*
X146280190Y-112006000D01*
X146756381Y-112244095D02*
X145756381Y-112244095D01*
X145756381Y-111863142D01*
X145804000Y-111767904D01*
X145851619Y-111720285D01*
X145946857Y-111672666D01*
X146089714Y-111672666D01*
X146184952Y-111720285D01*
X146232571Y-111767904D01*
X146280190Y-111863142D01*
X146280190Y-112244095D01*
X145756381Y-111339333D02*
X145756381Y-110720285D01*
X146137333Y-111053619D01*
X146137333Y-110910761D01*
X146184952Y-110815523D01*
X146232571Y-110767904D01*
X146327810Y-110720285D01*
X146565905Y-110720285D01*
X146661143Y-110767904D01*
X146708762Y-110815523D01*
X146756381Y-110910761D01*
X146756381Y-111196476D01*
X146708762Y-111291714D01*
X146661143Y-111339333D01*
%LPC*%
D14*
X136398000Y-100350000D03*
X136398000Y-102850000D03*
X136398000Y-105430000D03*
X136398000Y-107930000D03*
D15*
X148463000Y-99568000D03*
X145161000Y-99568000D03*
D16*
X133604000Y-105537000D03*
X133604000Y-102235000D03*
D17*
X147066000Y-109154000D03*
X147066000Y-107254000D03*
D15*
X142367000Y-99568000D03*
X139065000Y-99568000D03*
D18*
X130302000Y-102616000D03*
D19*
X130302000Y-105156000D03*
D18*
X150622000Y-105156000D03*
D19*
X150622000Y-107696000D03*
D20*
X140782000Y-111483140D03*
X142682000Y-111483140D03*
X141732000Y-108480860D03*
D21*
X147066000Y-102702000D03*
X147066000Y-104902000D03*
X138684000Y-109390000D03*
X138684000Y-111590000D03*
X144780000Y-111590000D03*
X144780000Y-109390000D03*
D22*
X144907000Y-102235000D03*
X144907000Y-103505000D03*
X144907000Y-104775000D03*
X144907000Y-106045000D03*
X138557000Y-106045000D03*
X138557000Y-104775000D03*
X138557000Y-103505000D03*
X138557000Y-102235000D03*
M02*
