G04 #@! TF.FileFunction,Copper,L2,Bot,Signal*
%FSLAX46Y46*%
G04 Gerber Fmt 4.6, Leading zero omitted, Abs format (unit mm)*
G04 Created by KiCad (PCBNEW 4.0.0-stable) date 2016 March 08, Tuesday 03:17:28*
%MOMM*%
G01*
G04 APERTURE LIST*
%ADD10C,0.100000*%
%ADD11R,2.032000X2.032000*%
%ADD12O,2.032000X2.032000*%
%ADD13C,0.600000*%
%ADD14C,0.250000*%
G04 APERTURE END LIST*
D10*
D11*
X130302000Y-102616000D03*
D12*
X130302000Y-105156000D03*
D11*
X150622000Y-105156000D03*
D12*
X150622000Y-107696000D03*
D13*
X148336000Y-102108000D03*
X143510000Y-104648000D03*
X146050000Y-111506000D03*
X140208000Y-108712000D03*
X138684000Y-107442000D03*
X143510000Y-106172000D03*
X140716000Y-99568000D03*
X140208000Y-107442000D03*
D14*
X143510000Y-104648000D02*
X146050000Y-102108000D01*
X146050000Y-102108000D02*
X148336000Y-102108000D01*
X140208000Y-108712000D02*
X143002000Y-111506000D01*
X143002000Y-111506000D02*
X146050000Y-111506000D01*
X133604000Y-105664000D02*
X133096000Y-105156000D01*
X133096000Y-105156000D02*
X130302000Y-105156000D01*
X138684000Y-107442000D02*
X135382000Y-107442000D01*
X135382000Y-107442000D02*
X133604000Y-105664000D01*
X133604000Y-105664000D02*
X134112000Y-106172000D01*
X134112000Y-106172000D02*
X143510000Y-106172000D01*
X139400001Y-99867999D02*
X133604000Y-105664000D01*
X140716000Y-99568000D02*
X140416001Y-99867999D01*
X140416001Y-99867999D02*
X139400001Y-99867999D01*
X140208000Y-107442000D02*
X150368000Y-107442000D01*
X150368000Y-107442000D02*
X150622000Y-107696000D01*
M02*
